<?xml version="1.0" encoding="UTF-8" standalone="no"?>
<svg
   xmlns:dc="http://purl.org/dc/elements/1.1/"
   xmlns:cc="http://creativecommons.org/ns#"
   xmlns:rdf="http://www.w3.org/1999/02/22-rdf-syntax-ns#"
   xmlns:svg="http://www.w3.org/2000/svg"
   xmlns="http://www.w3.org/2000/svg"
   xmlns:xlink="http://www.w3.org/1999/xlink"
   id="svg2"
   viewBox="0 0 100 100"
   y="0px"
   x="0px"
   preserveAspectRatio="none"
   version="1.1">
  <metadata
     id="metadata13">
    <rdf:RDF>
      <cc:Work
         rdf:about="">
        <dc:format>image/svg+xml</dc:format>
        <dc:type
           rdf:resource="http://purl.org/dc/dcmitype/StillImage" />
        <dc:title></dc:title>
      </cc:Work>
    </rdf:RDF>
  </metadata>
  <defs
     id="defs4">
    <path
       style="fill:none;stroke-linecap:round;stroke-linejoin:round"
       id="a"
       d="m 51.45,58.85 q 19,8.65 31.85,0.1 3.8,-2.55 9.25,-10.15 -5.45,-3.75 -13,-4.1 L 77.2,44.65 Q 70.4,56.25 51.45,58.85 51.3,58 51.1,57.6 50.9,58 50.75,58.85 31.7,67.45 18.9,58.95 15.1,56.4 9.65,48.8 q 5.45,-3.75 13,-4.1 L 25,44.65 q -0.7,-1.3 -0.95,-1.8 -3.45,-6.7 -3.05,-13.3 9.15,0.85 13.45,2.9 l 1.5,0.8 0.05,-1.9 q 0.4,-7.6 4.15,-13.05 7.55,5.45 10.1,9.3 0.4,0.6 0.85,1.35 0.4,-0.75 0.85,-1.35 2.55,-3.85 10.1,-9.3 3.75,5.45 4.1,13.05 l 0.1,1.9 1.45,-0.8 q 4.35,-2.05 13.45,-2.9 0.45,6.6 -3.05,13.3 -0.2,0.5 -0.9,1.8 -10.7,0.9 -17.75,7 -4.25,3.95 -5.6,5 -1.25,1.15 -1.9,1.9 l -0.5,0.3 0.3,-0.2 q 0.2,-2.25 0.6,-4.4 -0.55,1.65 -1.25,3.35 -0.7,-1.7 -1.3,-3.35 0.45,2.15 0.65,4.4 l 0.3,0.2 q -19,-2.6 -25.75,-14.2 10.65,0.9 17.75,7 -6.75,-7.7 -6.8,-18.4 8.8,5.8 12.4,15.5 -2.35,-11.2 2.75,-19.8 5.1,8.6 2.8,19.8 3.55,-9.7 12.35,-15.5 -0.1,10.7 -6.8,18.4 m -7.5,6.9 -0.1,-0.55 q -0.05,0.3 -0.1,0.65 m -9,-7 q 4.25,3.95 5.6,5 1.25,1.15 1.9,1.9 L 50.3,58 q 0.1,0.3 0.15,0.65 m 0.3,0.2 -0.5,-0.3 m 2.1,-4.3 q 1,-2.8 1.55,-5.5 m -5.55,0 q 0.9,2.6 1.45,5.5" />
  </defs>
  <g
     transform="translate(0.84696806,-3.0452114)"
     id="g4275">
    <g
       id="g4270">
      <g
         id="g4266">
        <g
           id="g4263">
          <use
             style="fill:none;stroke:#073668;stroke-opacity:1"
             height="100%"
             width="100%"
             y="0"
             x="0"
             id="use4245"
             xlink:href="#a"
             transform="matrix(0.75790657,0,0,0.70396255,13.229284,12.062315)" />
        </g>
      </g>
    </g>
  </g>
  <g
     id="text4247"
     style="font-style:normal;font-variant:normal;font-weight:300;font-stretch:normal;font-size:13.75px;line-height:125%;font-family:'Gill Sans';-inkscape-font-specification:'Gill Sans, Light';text-align:center;letter-spacing:0px;word-spacing:0px;writing-mode:lr-tb;text-anchor:middle;fill:#073668;fill-opacity:1;stroke:none;stroke-width:1px;stroke-linecap:butt;stroke-linejoin:miter;stroke-opacity:1">
    <path
       id="path3437"
       style="font-style:normal;font-variant:normal;font-weight:300;font-stretch:normal;font-size:13.75px;line-height:125%;font-family:'Gill Sans';-inkscape-font-specification:'Gill Sans, Light';text-align:center;writing-mode:lr-tb;text-anchor:middle;fill:#073668;fill-opacity:1"
       d="m 28.393658,60.181549 0,9.379273 -0.731812,0 0,-4.444581 -6.257324,0 0,4.444581 -0.725098,0 0,-9.379273 0.725098,0 0,4.330444 6.257324,0 0,-4.330444 0.731812,0 z" />
    <path
       id="path3439"
       style="font-style:normal;font-variant:normal;font-weight:300;font-stretch:normal;font-size:13.75px;line-height:125%;font-family:'Gill Sans';-inkscape-font-specification:'Gill Sans, Light';text-align:center;writing-mode:lr-tb;text-anchor:middle;fill:#073668;fill-opacity:1"
       d="m 31.099346,60.181549 0,1.12793 -0.664673,0 0,-1.12793 0.664673,0 z m 0,3.202515 0,6.176758 -0.664673,0 0,-6.176758 0.664673,0 z" />
    <path
       id="path3441"
       style="font-style:normal;font-variant:normal;font-weight:300;font-stretch:normal;font-size:13.75px;line-height:125%;font-family:'Gill Sans';-inkscape-font-specification:'Gill Sans, Light';text-align:center;writing-mode:lr-tb;text-anchor:middle;fill:#073668;fill-opacity:1"
       d="m 33.590191,63.384064 0,1.074218 0.02686,0 q 0.772095,-1.195068 2.034302,-1.195068 1.047363,0 1.671753,0.671387 0.62439,0.671387 0.62439,1.859741 l 0,3.76648 -0.657959,0 0,-3.518067 q 0,-2.13501 -1.678467,-2.13501 -1.228638,0 -2.020874,1.322632 l 0,4.330445 -0.657959,0 0,-6.176758 0.657959,0 z" />
    <path
       id="path3443"
       style="font-style:normal;font-variant:normal;font-weight:300;font-stretch:normal;font-size:13.75px;line-height:125%;font-family:'Gill Sans';-inkscape-font-specification:'Gill Sans, Light';text-align:center;writing-mode:lr-tb;text-anchor:middle;fill:#073668;fill-opacity:1"
       d="m 40.357769,63.384064 0,1.074218 0.02686,0 q 0.772095,-1.195068 2.034302,-1.195068 1.047364,0 1.671753,0.671387 0.62439,0.671387 0.62439,1.859741 l 0,3.76648 -0.657959,0 0,-3.518067 q 0,-2.13501 -1.678467,-2.13501 -1.228638,0 -2.020874,1.322632 l 0,4.330445 -0.657959,0 0,-6.176758 0.657959,0 z" />
    <path
       id="path3445"
       style="font-style:normal;font-variant:normal;font-weight:300;font-stretch:normal;font-size:13.75px;line-height:125%;font-family:'Gill Sans';-inkscape-font-specification:'Gill Sans, Light';text-align:center;writing-mode:lr-tb;text-anchor:middle;fill:#073668;fill-opacity:1"
       d="m 51.428936,63.384064 -4.619141,9.338989 -0.671386,0 2.155151,-4.3573 -2.598267,-4.981689 0.691529,0 2.242431,4.32373 2.128296,-4.32373 0.671387,0 z" />
    <path
       id="path3447"
       style="font-style:normal;font-variant:normal;font-weight:300;font-stretch:normal;font-size:13.75px;line-height:125%;font-family:'Gill Sans';-inkscape-font-specification:'Gill Sans, Light';text-align:center;writing-mode:lr-tb;text-anchor:middle;fill:#073668;fill-opacity:1"
       d="m 62.271832,61.739166 -3.148804,7.91565 -0.194702,0 -3.76648,-9.473267 0.745239,0 3.101807,7.781372 3.148804,-7.781372 0.221557,0 3.135376,7.781372 3.108521,-7.781372 0.745239,0 -3.773193,9.473267 -0.174561,0 -3.148803,-7.91565 z" />
    <path
       id="path3449"
       style="font-style:normal;font-variant:normal;font-weight:300;font-stretch:normal;font-size:13.75px;line-height:125%;font-family:'Gill Sans';-inkscape-font-specification:'Gill Sans, Light';text-align:center;writing-mode:lr-tb;text-anchor:middle;fill:#073668;fill-opacity:1"
       d="m 75.142315,68.486603 0,0.550537 q -0.852661,0.644531 -1.248779,0.644531 -0.228272,0 -0.315552,-0.147705 -0.08728,-0.154419 -0.127564,-0.617676 -0.97351,0.765381 -1.933593,0.765381 -0.698243,0 -1.181641,-0.456543 -0.483398,-0.456543 -0.483398,-1.107788 0,-1.00708 0.933227,-1.584473 0.933228,-0.584106 2.665405,-0.671386 l 0,-0.785523 q 0,-1.262207 -1.369629,-1.262207 -0.872802,0 -1.886596,0.785523 l 0,-0.678101 q 1.047363,-0.657959 1.994018,-0.657959 0.839234,0 1.383057,0.41626 0.543823,0.409546 0.543823,1.195068 l 0,3.847046 q 0,0.315552 0.147705,0.315552 0.187989,0 0.879517,-0.550537 z m -1.691895,-0.147705 0,-1.92688 q -1.268921,-0.047 -2.108154,0.449829 -0.832519,0.490112 -0.832519,1.255493 0,0.429688 0.349121,0.725098 0.349121,0.29541 0.872802,0.29541 0.845948,0 1.71875,-0.79895 z" />
    <path
       id="path3451"
       style="font-style:normal;font-variant:normal;font-weight:300;font-stretch:normal;font-size:13.75px;line-height:125%;font-family:'Gill Sans';-inkscape-font-specification:'Gill Sans, Light';text-align:center;writing-mode:lr-tb;text-anchor:middle;fill:#073668;fill-opacity:1"
       d="m 79.459332,63.786896 0,0.71167 q -0.939942,-0.631104 -1.691895,-0.631104 -0.557251,0 -0.939941,0.302124 -0.382691,0.302124 -0.382691,0.745239 0,0.315552 0.228272,0.584107 0.234985,0.261841 1.282348,0.664673 1.054077,0.402832 1.376343,0.839233 0.322266,0.436402 0.322266,0.973511 0,0.718384 -0.584107,1.21521 -0.584106,0.490112 -1.443481,0.490112 -0.933228,0 -1.853028,-0.563965 l 0,-0.644531 q 1.094361,0.563965 1.940308,0.563965 0.570679,0 0.933228,-0.302124 0.369262,-0.302124 0.369262,-0.772095 0,-0.322265 -0.241699,-0.59082 -0.234985,-0.275269 -1.289062,-0.691528 -1.047364,-0.41626 -1.362915,-0.819092 -0.308838,-0.409546 -0.308838,-0.906372 0,-0.704956 0.577392,-1.195069 0.584107,-0.496826 1.416626,-0.496826 0.758667,0 1.651612,0.523682 z" />
    <path
       id="path3453"
       style="font-style:normal;font-variant:normal;font-weight:300;font-stretch:normal;font-size:13.75px;line-height:125%;font-family:'Gill Sans';-inkscape-font-specification:'Gill Sans, Light';text-align:center;writing-mode:lr-tb;text-anchor:middle;fill:#073668;fill-opacity:1"
       d="m 84.320171,63.786896 0,0.71167 q -0.939941,-0.631104 -1.691894,-0.631104 -0.557251,0 -0.939942,0.302124 -0.38269,0.302124 -0.38269,0.745239 0,0.315552 0.228271,0.584107 0.234986,0.261841 1.282349,0.664673 1.054077,0.402832 1.376343,0.839233 0.322266,0.436402 0.322266,0.973511 0,0.718384 -0.584107,1.21521 -0.584106,0.490112 -1.443481,0.490112 -0.933228,0 -1.853028,-0.563965 l 0,-0.644531 q 1.094361,0.563965 1.940308,0.563965 0.570679,0 0.933227,-0.302124 0.369263,-0.302124 0.369263,-0.772095 0,-0.322265 -0.241699,-0.59082 -0.234985,-0.275269 -1.289063,-0.691528 -1.047363,-0.41626 -1.362915,-0.819092 -0.308838,-0.409546 -0.308838,-0.906372 0,-0.704956 0.577393,-1.195069 0.584106,-0.496826 1.416626,-0.496826 0.758667,0 1.651611,0.523682 z" />
    <path
       id="path3455"
       style="font-style:normal;font-variant:normal;font-weight:300;font-stretch:normal;font-size:13.75px;line-height:125%;font-family:'Gill Sans';-inkscape-font-specification:'Gill Sans, Light';text-align:center;writing-mode:lr-tb;text-anchor:middle;fill:#073668;fill-opacity:1"
       d="m 46.675518,77.369049 -3.64563,4.343872 0,5.035401 -0.725098,0 0,-5.035401 -3.645629,-4.343872 0.879516,0 3.135376,3.712769 3.121948,-3.712769 0.879517,0 z" />
    <path
       id="path3457"
       style="font-style:normal;font-variant:normal;font-weight:300;font-stretch:normal;font-size:13.75px;line-height:125%;font-family:'Gill Sans';-inkscape-font-specification:'Gill Sans, Light';text-align:center;writing-mode:lr-tb;text-anchor:middle;fill:#073668;fill-opacity:1"
       d="m 50.415142,80.450714 q 1.342773,0 2.235718,0.9198 0.899658,0.9198 0.899658,2.296142 0,1.369629 -0.899658,2.289429 -0.892945,0.913086 -2.235718,0.913086 -1.342773,0 -2.249145,-0.913086 -0.899659,-0.9198 -0.899659,-2.289429 0,-1.376342 0.899659,-2.296142 0.906372,-0.9198 2.249145,-0.9198 z m 0,5.773926 q 1.040649,0 1.738892,-0.725098 0.698242,-0.731811 0.698242,-1.832886 0,-1.09436 -0.704956,-1.832885 -0.698242,-0.738526 -1.732178,-0.738526 -1.047363,0 -1.752319,0.731812 -0.698242,0.731811 -0.698242,1.839599 0,1.101075 0.698242,1.832886 0.704956,0.725098 1.752319,0.725098 z" />
    <path
       id="path3459"
       style="font-style:normal;font-variant:normal;font-weight:300;font-stretch:normal;font-size:13.75px;line-height:125%;font-family:'Gill Sans';-inkscape-font-specification:'Gill Sans, Light';text-align:center;writing-mode:lr-tb;text-anchor:middle;fill:#073668;fill-opacity:1"
       d="m 59.861553,80.571564 0,0.537109 -1.403198,0 q 0.852661,0.778809 0.852661,1.638184 0,0.772094 -0.335693,1.221924 -0.32898,0.449829 -0.792237,0.657959 -0.456543,0.201416 -1.221923,0.402832 -0.765381,0.194702 -0.960083,0.369262 -0.194703,0.174561 -0.194703,0.402832 0,0.268555 0.248413,0.429688 0.255127,0.161133 1.564332,0.234985 1.315918,0.07385 1.77246,0.50354 0.456543,0.429688 0.456543,1.141358 0,0.839233 -0.731811,1.315918 -0.731812,0.483398 -2.034302,0.483398 -1.295776,0 -2.000732,-0.456543 -0.704956,-0.449829 -0.704956,-1.195068 0,-1.208496 1.799316,-1.497193 l 0,-0.02685 q -1.000366,-0.234986 -1.000366,-0.879517 0,-0.651245 1.235351,-1.00708 l 0,-0.02685 q -0.812377,-0.2417 -1.235351,-0.798951 -0.41626,-0.563964 -0.41626,-1.248779 0,-0.973511 0.678101,-1.584472 0.6781,-0.617676 1.947021,-0.617676 l 2.477417,0 z m -2.833252,3.840332 q 0.678101,0 1.161499,-0.483399 0.490113,-0.490112 0.490113,-1.168213 0,-0.6781 -0.490113,-1.154785 -0.483398,-0.483398 -1.174926,-0.483398 -0.684815,0 -1.154786,0.469971 -0.46997,0.46997 -0.46997,1.141357 0,0.698242 0.476684,1.188354 0.476685,0.490113 1.161499,0.490113 z m 0.09399,4.94812 q 0.960083,0 1.524048,-0.32898 0.570679,-0.328979 0.570679,-0.866088 0,-1.087647 -1.967163,-1.087647 -2.242432,0 -2.242432,1.141357 0,1.141358 2.114868,1.141358 z" />
    <path
       id="path3461"
       style="font-style:normal;font-variant:normal;font-weight:300;font-stretch:normal;font-size:13.75px;line-height:125%;font-family:'Gill Sans';-inkscape-font-specification:'Gill Sans, Light';text-align:center;writing-mode:lr-tb;text-anchor:middle;fill:#073668;fill-opacity:1"
       d="m 65.796612,85.674103 0,0.550537 q -0.852661,0.644531 -1.24878,0.644531 -0.228271,0 -0.315551,-0.147705 -0.08728,-0.154419 -0.127564,-0.617676 -0.97351,0.765381 -1.933593,0.765381 -0.698243,0 -1.181641,-0.456543 -0.483399,-0.456543 -0.483399,-1.107788 0,-1.00708 0.933228,-1.584473 0.933228,-0.584106 2.665405,-0.671386 l 0,-0.785523 q 0,-1.262207 -1.369629,-1.262207 -0.872802,0 -1.886596,0.785523 l 0,-0.678101 q 1.047363,-0.657959 1.994018,-0.657959 0.839234,0 1.383057,0.41626 0.543823,0.409546 0.543823,1.195068 l 0,3.847046 q 0,0.315552 0.147705,0.315552 0.187988,0 0.879517,-0.550537 z m -1.691895,-0.147705 0,-1.92688 q -1.268921,-0.047 -2.108154,0.449829 -0.83252,0.490112 -0.83252,1.255493 0,0.429688 0.349122,0.725098 0.349121,0.29541 0.872802,0.29541 0.845948,0 1.71875,-0.79895 z" />
  </g>
</svg>
