<?xml version="1.0" encoding="UTF-8" standalone="no"?>
<svg
   xmlns:dc="http://purl.org/dc/elements/1.1/"
   xmlns:cc="http://creativecommons.org/ns#"
   xmlns:rdf="http://www.w3.org/1999/02/22-rdf-syntax-ns#"
   xmlns:svg="http://www.w3.org/2000/svg"
   xmlns="http://www.w3.org/2000/svg"
   xmlns:xlink="http://www.w3.org/1999/xlink"
   xmlns:sodipodi="http://sodipodi.sourceforge.net/DTD/sodipodi-0.dtd"
   xmlns:inkscape="http://www.inkscape.org/namespaces/inkscape"
   id="svg2"
   viewBox="0 0 500 254.02531"
   y="0px"
   x="0px"
   preserveAspectRatio="none"
   version="1.1"
   inkscape:version="0.91 r13725"
   sodipodi:docname="logo.svg"
   width="500"
   height="254.02531">
  <sodipodi:namedview
     pagecolor="#ffffff"
     bordercolor="#666666"
     borderopacity="1"
     objecttolerance="10"
     gridtolerance="10"
     guidetolerance="10"
     inkscape:pageopacity="0"
     inkscape:pageshadow="2"
     inkscape:window-width="1280"
     inkscape:window-height="751"
     id="namedview11"
     showgrid="false"
     inkscape:zoom="1"
     inkscape:cx="56.988886"
     inkscape:cy="3.853742"
     inkscape:window-x="0"
     inkscape:window-y="1"
     inkscape:window-maximized="1"
     inkscape:current-layer="svg2"
     fit-margin-top="0"
     fit-margin-left="0"
     fit-margin-right="0"
     fit-margin-bottom="0" />
  <metadata
     id="metadata13">
    <rdf:RDF>
      <cc:Work
         rdf:about="">
        <dc:format>image/svg+xml</dc:format>
        <dc:type
           rdf:resource="http://purl.org/dc/dcmitype/StillImage" />
        <dc:title></dc:title>
      </cc:Work>
    </rdf:RDF>
  </metadata>
  <defs
     id="defs4">
    <path
       style="fill:none;stroke-linecap:round;stroke-linejoin:round"
       id="a"
       d="m 51.45,58.85 q 19,8.65 31.85,0.1 3.8,-2.55 9.25,-10.15 -5.45,-3.75 -13,-4.1 L 77.2,44.65 Q 70.4,56.25 51.45,58.85 51.3,58 51.1,57.6 50.9,58 50.75,58.85 31.7,67.45 18.9,58.95 15.1,56.4 9.65,48.8 q 5.45,-3.75 13,-4.1 L 25,44.65 q -0.7,-1.3 -0.95,-1.8 -3.45,-6.7 -3.05,-13.3 9.15,0.85 13.45,2.9 l 1.5,0.8 0.05,-1.9 q 0.4,-7.6 4.15,-13.05 7.55,5.45 10.1,9.3 0.4,0.6 0.85,1.35 0.4,-0.75 0.85,-1.35 2.55,-3.85 10.1,-9.3 3.75,5.45 4.1,13.05 l 0.1,1.9 1.45,-0.8 q 4.35,-2.05 13.45,-2.9 0.45,6.6 -3.05,13.3 -0.2,0.5 -0.9,1.8 -10.7,0.9 -17.75,7 -4.25,3.95 -5.6,5 -1.25,1.15 -1.9,1.9 l -0.5,0.3 0.3,-0.2 q 0.2,-2.25 0.6,-4.4 -0.55,1.65 -1.25,3.35 -0.7,-1.7 -1.3,-3.35 0.45,2.15 0.65,4.4 l 0.3,0.2 q -19,-2.6 -25.75,-14.2 10.65,0.9 17.75,7 -6.75,-7.7 -6.8,-18.4 8.8,5.8 12.4,15.5 -2.35,-11.2 2.75,-19.8 5.1,8.6 2.8,19.8 3.55,-9.7 12.35,-15.5 -0.1,10.7 -6.8,18.4 m -7.5,6.9 -0.1,-0.55 q -0.05,0.3 -0.1,0.65 m -9,-7 q 4.25,3.95 5.6,5 1.25,1.15 1.9,1.9 L 50.3,58 q 0.1,0.3 0.15,0.65 m 0.3,0.2 -0.5,-0.3 m 2.1,-4.3 q 1,-2.8 1.55,-5.5 m -5.55,0 q 0.9,2.6 1.45,5.5"
       inkscape:connector-curvature="0" />
  </defs>
  <g
     transform="matrix(7.863078,0,0,7.863078,-158.55224,-193.3756)"
     id="g4275">
    <g
       id="g4270">
      <g
         id="g4266">
        <g
           id="g4263">
          <use
             style="fill:none;stroke:#073668;stroke-opacity:1"
             height="100%"
             width="100%"
             y="0"
             x="0"
             id="use4245"
             xlink:href="#a"
             transform="matrix(0.75790657,0,0,0.70396255,13.229284,12.062315)" />
        </g>
      </g>
    </g>
  </g>
</svg>
