<svg xmlns="http://www.w3.org/2000/svg" xmlns:xlink="http://www.w3.org/1999/xlink" version="1.1" x="0px" y="0px" viewBox="0 0 100 100" enable-background="new 0 0 100 100" xml:space="preserve"><path fill="#000000" d="M44.551,27.157c-0.654,0.129-1.08,0.764-0.952,1.418c0.128,0.654,0.766,1.076,1.417,0.951  c1.263-0.246,2.529,0.107,3.474,0.975c0.788,0.721,1.248,1.705,1.295,2.771s-0.324,2.087-1.045,2.875  c-0.846,0.925-2.052,1.393-3.302,1.283c-0.666-0.066-1.25,0.432-1.309,1.096c-0.059,0.664,0.432,1.25,1.096,1.309  c0.194,0.018,0.388,0.025,0.58,0.025c1.797,0,3.491-0.742,4.717-2.084c1.155-1.262,1.75-2.9,1.675-4.611  c-0.077-1.709-0.813-3.289-2.076-4.443C48.625,27.35,46.542,26.766,44.551,27.157z M41.845,45.524c0.036,0,0.072,0,0.109-0.004  c0.664-0.06,1.154-0.646,1.094-1.311L41.55,27.551l5.594-17.688c0.201-0.636-0.151-1.314-0.787-1.515  c-0.632-0.202-1.314,0.15-1.516,0.786l-5.74,18.15l1.542,17.141C40.701,45.053,41.228,45.524,41.845,45.524z M47.074,58.761  l-2.002-8.012l-5.639-5.527c-0.476-0.467-1.24-0.46-1.707,0.018c-0.467,0.476-0.459,1.24,0.017,1.706l5.152,5.049l2.019,8.078  l33.002,29.221h-5.775c-0.666,0-1.207,0.541-1.207,1.207s0.541,1.207,1.207,1.207h12.145L47.074,58.761z M45.994,64.428H25.04  v24.866h-8.119c-0.666,0-1.207,0.541-1.207,1.207s0.541,1.207,1.207,1.207h10.533V66.841h18.54c0.667,0,1.207-0.539,1.207-1.207  C47.201,64.968,46.66,64.428,45.994,64.428z M36.656,62.634c0.196,0.458,0.642,0.732,1.11,0.732c0.158,0,0.319-0.031,0.475-0.098  c0.612-0.262,0.896-0.972,0.634-1.584c-0.045-0.104-4.451-10.404-5.465-13.113c-0.44-1.178-0.425-2.184,0.049-3.075  c1.148-2.16,4.551-3,4.585-3.008c0.648-0.154,1.049-0.803,0.896-1.451c-0.153-0.648-0.8-1.053-1.452-0.898  c-0.182,0.043-4.486,1.09-6.155,4.215c-0.811,1.519-0.873,3.222-0.184,5.064C32.184,52.179,36.474,62.208,36.656,62.634z"></path></svg>