<svg xmlns="http://www.w3.org/2000/svg" xmlns:xlink="http://www.w3.org/1999/xlink" version="1.1" x="0px" y="0px" viewBox="0 0 100 100" enable-background="new 0 0 100 100" xml:space="preserve"><path fill="#000000" d="M15.805,36.211c0.178,0.092,0.368,0.137,0.555,0.137c0.437,0,0.858-0.238,1.072-0.652  c0.308-0.592,0.077-1.32-0.516-1.627c-1.285-0.667-2.207-1.799-2.596-3.186c-0.763-2.732,0.838-5.576,3.568-6.34  c1.556-0.436,3.189-0.128,4.482,0.846c0.534,0.401,1.29,0.294,1.69-0.24c0.4-0.531,0.293-1.289-0.239-1.689  c-1.898-1.426-4.298-1.88-6.583-1.242c-4.013,1.123-6.365,5.303-5.244,9.316C12.557,33.542,13.946,35.249,15.805,36.211z   M90.5,74.005h-8.987l-27.487-7.357c-3.846-0.92-7.253-2.658-10.549-4.338c-5.831-2.974-11.34-5.781-18.014-3.343  c-0.626,0.229-0.948,0.922-0.719,1.548c0.229,0.626,0.921,0.949,1.548,0.72c5.688-2.075,10.507,0.381,16.089,3.226  c3.421,1.744,6.958,3.549,11.052,4.527l18.745,5.018H37.113c-5.172,0-10.595-1.811-15.108-4.984V43.532  c0-0.667-0.541-1.207-1.208-1.207c-0.666,0-1.207,0.54-1.207,1.207v23.581c-4.762-4.223-8.034-10.15-8.034-17.122  c0-5.258,1.826-7.925,5.426-7.925c0.666,0,1.207-0.54,1.207-1.206c0-0.667-0.541-1.207-1.207-1.207c-2.929,0-7.84,1.343-7.84,10.338  c0,8.46,4.354,15.522,10.448,20.213v5.447H9.5c-0.666,0-1.207,0.541-1.207,1.207s0.541,1.207,1.207,1.207h12.505v-6.184  c4.633,2.902,9.982,4.537,15.108,4.537h44.241c0.067,0,0.125-0.029,0.19-0.039l8.955,0.039c0.666,0,1.207-0.541,1.207-1.207  C91.707,74.544,91.166,74.005,90.5,74.005z"></path></svg>