<svg xmlns="http://www.w3.org/2000/svg" xmlns:xlink="http://www.w3.org/1999/xlink" version="1.1" x="0px" y="0px" viewBox="0 0 100 100" enable-background="new 0 0 100 100" xml:space="preserve"><path fill="#000000" d="M47.257,28.338c0.146,0.059,0.296,0.086,0.444,0.086c0.48,0,0.935-0.289,1.123-0.763  c0.245-0.62-0.058-1.321-0.678-1.567c-1.533-0.607-2.698-1.918-3.118-3.51c-0.355-1.342-0.166-2.742,0.532-3.944  c0.699-1.201,1.823-2.058,3.166-2.413c1.574-0.418,3.221-0.083,4.52,0.918c0.529,0.408,1.285,0.312,1.693-0.218  c0.406-0.527,0.309-1.286-0.219-1.692c-1.896-1.465-4.306-1.952-6.612-1.342c-1.966,0.52-3.612,1.775-4.634,3.533  c-1.023,1.76-1.3,3.811-0.78,5.776C43.309,25.53,45.015,27.451,47.257,28.338z M54.76,52.237c0,0.667,0.541,1.207,1.207,1.207  s1.207-0.54,1.207-1.207V32.831h32.152c0.666,0,1.207-0.54,1.207-1.206c0-0.667-0.541-1.207-1.207-1.207H54.76V52.237z   M50.262,53.661l-25.806,6.631v23.66h-9.166c-0.667,0-1.207,0.539-1.207,1.206c0,0.666,0.541,1.206,1.207,1.206h11.581V62.163  l22.854-5.871l36.044,27.66h-6.008c-0.668,0-1.207,0.539-1.207,1.206c0,0.666,0.539,1.206,1.207,1.206h13.119L50.262,53.661z   M41.735,41.828c1.798,2.199,2.127,5.231,2.127,10.41c0,0.667,0.541,1.207,1.208,1.207c0.667,0,1.207-0.54,1.207-1.207  c0-5.75-0.414-9.174-2.673-11.938c-2.595-3.172-2.155-5.732-1.863-7.426c0.081-0.469,0.15-0.873,0.15-1.249v-1.207H8.326  c-0.667,0-1.207,0.54-1.207,1.207c0,0.666,0.541,1.206,1.207,1.206h30.973C38.98,34.764,38.647,38.053,41.735,41.828z"></path></svg>