<svg xmlns="http://www.w3.org/2000/svg" xmlns:xlink="http://www.w3.org/1999/xlink" version="1.1" x="0px" y="0px" viewBox="0 0 100 100" enable-background="new 0 0 100 100" xml:space="preserve"><path fill="#000000" d="M68.295,32.574c-1.419-1.962-3.106-3.064-5.015-3.279c-2.16-0.242-4.465,0.691-6.846,2.783l-40.508,36.25  H8.968c-0.666,0-1.207,0.539-1.207,1.207c0,0.666,0.541,1.207,1.207,1.207h7.882l41.187-36.857c1.841-1.617,3.516-2.35,4.975-2.19  c1.205,0.134,2.324,0.907,3.305,2.263L85.867,62.92L64.54,38.607c-0.441-0.5-1.203-0.551-1.704-0.11  c-0.501,0.439-0.551,1.202-0.111,1.703l22.31,25.431h-5.269c-0.666,0-1.206,0.541-1.206,1.207c0,0.668,0.54,1.207,1.206,1.207  h12.474L68.295,32.574z M62.717,35.727c-0.524-0.41-1.283-0.316-1.694,0.207l-9.987,12.768c-2.193,2.898-4.133,3.209-6.943,2.77  c-0.659-0.104-1.276,0.348-1.379,1.006c-0.104,0.658,0.347,1.276,1.006,1.379c0.71,0.111,1.432,0.189,2.16,0.189  c2.338,0,4.745-0.802,7.069-3.871l9.976-12.754C63.335,36.896,63.242,36.137,62.717,35.727z M39.415,52.643  c-0.455,0.488-0.428,1.252,0.061,1.707c0.797,0.743,1.236,1.752,1.236,2.841c0,2.14-1.741,3.882-3.881,3.882  c-1.219,0-2.343-0.557-3.085-1.525c-0.405-0.529-1.162-0.629-1.692-0.225c-0.529,0.406-0.63,1.163-0.225,1.692  c1.203,1.571,3.026,2.472,5.002,2.472c3.472,0,6.295-2.824,6.295-6.296c0-1.741-0.73-3.421-2.005-4.608  C40.633,52.129,39.869,52.155,39.415,52.643z"></path></svg>